<?xml version="1.0" encoding="UTF-8" standalone="no"?>
<!-- Created with Inkscape (http://www.inkscape.org/) -->

<svg
   xmlns:dc="http://purl.org/dc/elements/1.1/"
   xmlns:cc="http://creativecommons.org/ns#"
   xmlns:rdf="http://www.w3.org/1999/02/22-rdf-syntax-ns#"
   xmlns:svg="http://www.w3.org/2000/svg"
   xmlns="http://www.w3.org/2000/svg"
   xmlns:sodipodi="http://sodipodi.sourceforge.net/DTD/sodipodi-0.dtd"
   xmlns:inkscape="http://www.inkscape.org/namespaces/inkscape"
   id="svg3055"
   version="1.1"
   inkscape:version="0.48.3.1 r9886"
   width="1024"
   height="400"
   sodipodi:docname="yahtzee.svg">
  <metadata
     id="metadata3061">
    <rdf:RDF>
      <cc:Work
         rdf:about="">
        <dc:format>image/svg+xml</dc:format>
        <dc:type
           rdf:resource="http://purl.org/dc/dcmitype/StillImage" />
      </cc:Work>
    </rdf:RDF>
  </metadata>
  <defs
     id="defs3059" />
  <sodipodi:namedview
     pagecolor="#ffffff"
     bordercolor="#666666"
     borderopacity="1"
     objecttolerance="10"
     gridtolerance="10"
     guidetolerance="10"
     inkscape:pageopacity="0"
     inkscape:pageshadow="2"
     inkscape:window-width="1920"
     inkscape:window-height="1002"
     id="namedview3057"
     showgrid="false"
     inkscape:zoom="2"
     inkscape:cx="559.76705"
     inkscape:cy="149.56589"
     inkscape:window-x="0"
     inkscape:window-y="24"
     inkscape:window-maximized="1"
     inkscape:current-layer="svg3055" />
  <path
     style="fill:none;stroke:#000000;stroke-width:2px;stroke-linecap:butt;stroke-linejoin:miter;stroke-opacity:1"
     d="m 1000.015,272.37895 c 21.2199,0.25262 18.9463,11.62044 18.6937,24.25136 -0.2526,12.63092 -8.8416,15.40972 -20.4621,15.66234 -11.6204,0.25262 -16.4202,-11.87306 -16.9254,-19.45162 -0.5052,-7.57854 4.5471,-19.199 18.6938,-20.46208 z"
     id="path3005"
     inkscape:connector-curvature="0" />
  <path
     style="fill:#000000"
     d="m 45.27388,305.05171 c -10.15428,-0.38484 -18.649888,-0.8873 -18.87913,-1.11654 -0.22924,-0.22924 5.478844,-27.00988 12.684634,-59.51254 7.205788,-32.50266 13.116886,-60.23252 13.135772,-61.62192 0.0188,-1.38942 -10.833204,-31.17312 -24.115754,-66.18603 C 14.81685,81.60177 3.987324,52.902062 4.033788,52.83755 4.080248,52.77303 18.269714,52.407152 35.565926,52.02447 l 31.447658,-0.695784 5.025656,14.454472 c 2.764112,7.94996 8.33954,24.117126 12.38985,35.927032 4.05031,11.80991 7.64469,21.45645 7.98752,21.43676 0.34283,-0.0196 13.02035,-16.3702 28.17225,-36.334456 l 27.54891,-36.298644 18.93287,0.583584 c 10.4131,0.320972 23.9752,0.870196 30.13808,1.220498 l 11.20522,0.636912 -49.84594,65.106296 c -27.41527,35.80847 -50.06636,65.81953 -50.33577,66.69127 -0.26942,0.87172 -6.20861,27.5036 -13.19821,59.18194 -6.9896,31.67834 -12.96155,58.6201 -13.27099,59.87056 -0.64066,2.58892 -0.87099,2.5968 -36.48915,1.2468 l 0,0 z"
     id="path2990"
     inkscape:connector-curvature="0" />
  <path
     style="fill:#000000"
     d="m 162.03066,315.15177 c -17.35593,-2.41388 -28.57719,-14.2519 -36.63011,-38.64348 -3.83917,-11.62846 -5.15888,-20.78672 -4.75751,-33.01506 0.49559,-15.09852 3.31541,-26.86308 11.76529,-49.08592 2.69432,-7.08594 6.31434,-16.97596 8.0445,-21.9778 3.93266,-11.3692 3.56118,-10.48894 6.10618,-14.46906 8.98884,-14.05757 32.41327,-28.3015 64.74623,-39.37088 l 7.46712,-2.55642 37.1349,0.35084 c 20.4242,0.19296 40.55622,0.49121 44.73784,0.66277 l 7.60294,0.31193 -18.89544,93.46882 c -10.3925,51.40784 -18.92934,93.50426 -18.97076,93.5476 -0.1856,0.1942 -50.59978,1.0993 -50.78736,0.91174 -0.116,-0.1158 0.01,-2.54608 0.28184,-5.40038 0.27092,-2.85432 0.4298,-5.27214 0.35308,-5.37294 -0.0768,-0.1008 -2.93686,1.67886 -6.35586,3.95482 -11.56614,7.69932 -25.6484,13.89756 -36.02538,15.85638 -5.43678,1.02628 -11.94008,1.36632 -15.81752,0.82704 l 0,0 z m 41.58458,-47.5015 c 3.0567,-0.2864 7.37648,-0.99814 9.59952,-1.5816 4.72782,-1.24088 10.4874,-4.08116 11.8889,-5.86286 1.47134,-1.87052 4.05318,-10.35098 9.13166,-29.99442 4.64932,-17.9835 18.66714,-75.85958 18.43076,-76.09596 -0.0714,-0.0714 -8.48102,-0.38606 -18.68814,-0.69934 l -18.55838,-0.56958 -3.37596,2.30958 c -13.88252,9.49736 -25.68798,21.91318 -29.27136,30.78474 -1.30716,3.2362 -5.51994,21.63652 -7.18714,31.39156 -3.45958,20.24258 -3.30892,32.83234 0.48512,40.53914 2.9101,5.91126 9.36632,9.25946 19.20862,9.96162 1.25048,0.0892 2.38726,0.20172 2.5262,0.25004 0.139,0.0482 2.75352,-0.1466 5.8102,-0.43292 z"
     id="path2992"
     inkscape:connector-curvature="0" />
  <path
     style="fill:#000000"
     d="m 311.2328,305.06069 c -11.64448,-0.2521 -21.38642,-0.50998 -21.64876,-0.57304 -0.36314,-0.0874 5.72848,-30.41384 25.5232,-127.06456 14.30012,-69.82245 26.05162,-126.9945 26.11448,-127.049008 0.24222,-0.21005 49.58296,1.824108 49.81246,2.053606 0.1334,0.13346 -2.04874,15.367516 -4.84932,33.853448 -2.8006,18.485934 -5.02906,33.673704 -4.95216,33.750614 0.077,0.0769 1.11514,-0.53889 2.30718,-1.36846 10.20676,-7.10311 26.56084,-9.13793 44.60942,-5.55041 10.94158,2.17485 16.2227,4.57953 21.4652,9.77386 5.90298,5.84875 9.30416,13.41403 10.9218,24.29343 0.67554,4.54332 0.56946,17.45256 -0.185,22.50716 -0.43172,2.89256 -26.94548,135.4573 -27.16422,135.81694 -0.081,0.1332 -50.71028,-0.9559 -50.8482,-1.0938 -0.082,-0.082 0.57664,-2.85714 1.46384,-6.16674 8.61298,-32.12944 18.42428,-75.64474 22.98438,-101.9408 1.67194,-9.64136 1.70354,-9.96444 1.69462,-17.32694 -0.008,-7.17504 -0.0524,-7.64266 -0.99978,-10.71768 -1.3333,-4.3273 -3.11452,-7.41358 -5.81488,-10.07524 -5.70848,-5.62672 -15.98734,-7.844 -27.08524,-5.84268 -2.1182,0.38198 -3.91204,0.75528 -3.9863,0.82956 -0.0742,0.0742 -7.4503,33.64304 -16.39118,74.59726 -8.94088,40.95422 -16.43432,75.22586 -16.6521,76.15918 l -0.39596,1.69698 -2.37586,-0.0522 c -1.3067,-0.0288 -11.90314,-0.25842 -23.54764,-0.51054 z"
     id="path2994"
     inkscape:connector-curvature="0" />
  <path
     style="fill:#000000"
     d="m 455.89856,304.15333 c 0,-0.21478 6.54964,-33.58576 14.55476,-74.1577 8.00512,-40.57194 14.48276,-73.83918 14.39474,-73.9272 -0.088,-0.088 -3.39594,0.26892 -7.35094,0.7932 -3.955,0.5243 -7.28576,0.91472 -7.40172,0.86764 -0.1444,-0.0586 6.19208,-41.83116 6.4987,-42.84127 0.01,-0.0347 4.11158,-0.0632 9.11344,-0.0632 5.00184,0 9.09364,-0.0853 9.0929,-0.18946 -0.004,-0.54089 6.92068,-38.866722 7.0494,-39.016698 0.1388,-0.1617 52.85218,-1.243896 53.02382,-1.088564 0.0412,0.03734 -1.92488,8.73396 -4.36916,19.325842 -2.44428,10.59188 -4.40356,19.37969 -4.35398,19.52846 0.0496,0.14876 3.20396,0.93569 7.0097,1.74871 3.80574,0.81303 6.94088,1.50256 6.967,1.53229 0.0512,0.0584 -6.37948,38.83675 -6.59654,39.77831 l -0.131,0.56838 -9.55358,0 -9.55358,0 -2.08204,9.78896 c -1.14514,5.38394 -8.1891,38.54958 -15.65326,73.70142 l -13.57118,63.91246 -23.54372,0.0644 c -21.09788,0.0578 -23.54372,0.024 -23.54372,-0.32606 z"
     id="path2996"
     inkscape:connector-curvature="0" />
  <path
     style="fill:#000000"
     d="m 520.7828,307.97397 c -0.93802,-2.0489 -0.92116,-5.90308 0.0448,-10.23212 2.05422,-9.2069 8.13034,-19.65282 18.98134,-32.63228 3.79864,-4.54376 6.29126,-7.32976 14.2245,-15.89866 10.21158,-11.0298 12.29144,-13.59806 13.39452,-16.53986 0.90542,-2.41468 3.54252,-5.95516 8.82702,-11.85082 10.0526,-11.2152 33.90828,-34.78922 58.48622,-57.79568 3.4105,-3.19244 6.10714,-5.8357 5.99254,-5.8739 -0.1146,-0.0382 -17.8785,0.1576 -39.4753,0.43518 -21.59682,0.27756 -39.30824,0.46332 -39.35872,0.41284 -0.126,-0.126 7.52654,-42.14627 7.70792,-42.32488 0.20546,-0.2023 8.43716,-2.42604 14.88208,-4.02029 26.91329,-4.97059 115.03572,-3.27728 114.78754,-3.49343 3.09212,2.60755 4.98822,6.0866 5.70302,10.4641 0.79294,4.85624 0.39538,10.73337 -1.10634,16.35476 -5.58346,20.90064 -26.84862,44.8435 -61.95526,69.75664 -4.49958,3.19308 -12.80576,8.7502 -16.95064,11.34056 -7.9628,4.97636 -10.9087,7.1331 -14.61188,10.6975 -8.08204,7.77914 -13.59742,17.40064 -16.31198,28.45598 -0.66804,2.72066 -1.335,6.82622 -1.3366,8.22764 l -9.8e-4,0.84848 40.30002,0 40.30002,0 -0.098,0.40192 c -0.054,0.22106 -2.0014,9.08324 -4.32772,19.69376 -2.32634,10.61052 -4.25024,19.31526 -4.27536,19.3439 -0.0752,0.0858 -7.97894,1.57702 -14.46998,2.73028 -5.38855,-1.57388 -127.07755,1.8064 -129.35278,1.49838 z"
     id="path2998"
     inkscape:connector-curvature="0"
     sodipodi:nodetypes="ccsssssssscccsssssscccccsccc" />
  <path
     style="fill:#000000"
     d="m 742.91238,309.70195 c -18.7485,-1.14618 -33.83788,-7.2398 -44.59504,-18.00906 -9.09392,-9.10414 -13.82626,-19.61114 -15.70656,-34.87252 -0.48524,-3.93848 -0.40228,-16.5411 0.1414,-21.47256 1.73336,-15.72344 5.15682,-29.9793 12.70112,-52.88934 1.73242,-5.2609 3.54058,-11.03288 4.01814,-12.82662 1.00618,-3.77934 1.16562,-4.12722 3.28338,-7.16444 3.07494,-4.40994 8.9147,-10.71914 15.65362,-16.91191 14.47926,-13.30579 32.37794,-25.00356 46.86072,-30.62607 17.83724,-6.92477 32.3555,-7.40451 44.22014,-1.4612 6.61194,3.3121 13.41422,9.56465 19.09102,17.54818 7.3497,10.33621 12.02888,23.54 13.87614,39.15586 0.5616,4.7475 0.76732,16.61192 0.38224,22.04512 -0.65164,9.19444 -2.4486,20.68806 -4.20112,26.87084 -0.1512,0.53346 -0.25042,0.54132 -8.7832,0.69644 -4.74664,0.0864 -28.18292,0.33756 -52.08062,0.55838 -23.8977,0.2208 -43.46592,0.41896 -43.48494,0.44034 -0.02,0.0214 -0.33944,1.71728 -0.71202,3.76868 -2.67772,14.7428 -1.58836,25.13588 3.4118,32.55094 3.23122,4.79176 8.98154,8.45492 16.1929,10.31546 4.86514,1.2552 9.08954,1.88502 12.7192,1.8963 3.7335,0.012 4.65236,-0.26928 7.1275,-2.17884 4.25224,-3.28058 7.43974,-10.94044 8.45914,-20.32808 l 0.30544,-2.8129 1.14822,-0.1422 c 0.63152,-0.0782 2.94412,-0.37564 5.13912,-0.66092 7.64156,-0.99316 13.66204,-1.32938 21.52356,-1.20198 7.78882,0.1262 10.47256,0.40856 15.12884,1.59158 4.12328,1.04762 7.8949,3.00278 8.66852,4.49368 2.42392,4.67128 -6.72182,16.2535 -26.07092,33.01638 -8.42224,7.2965 -29.32742,23.65202 -31.90468,24.96114 -2.67512,1.35884 -10.80736,2.89352 -18.87162,3.56138 -2.75918,0.2285 -10.5236,0.27858 -13.6414,0.088 l 0,0 z m 78.98154,-114.07716 c 0.32482,-0.52558 0.53548,-7.73508 0.38938,-13.32684 -0.22082,-8.45186 0.41296,-16.6954 -2.70852,-23.59888 -5.21868,-11.54164 -9.51982,-18.97127 -20.3442,-24.20432 -7.58696,-3.66792 -17.54228,-3.42333 -25.1303,-0.96777 -12.9984,4.20641 -23.53744,16.2302 -31.47216,29.95089 -5.65736,9.78268 -5.12716,22.35296 -3.8374,30.79328 l 0.30482,1.9948 41.31634,-0.1866 c 28.67016,-0.1294 41.36706,-0.2686 41.48204,-0.45462 z"
     id="path3002"
     inkscape:connector-curvature="0"
     sodipodi:nodetypes="cssssssssssssccscssscssccsssssssccccsssssscscc" />
  <path
     style="fill:#000000"
     d="m 902.4063,307.75247 c -18.7485,-1.1462 -33.83788,-7.23982 -44.59504,-18.00908 -9.09392,-9.10414 -13.82626,-19.61114 -15.70656,-34.87252 -0.48524,-3.93848 -0.40228,-16.5411 0.1414,-21.47256 1.73336,-15.72344 5.15682,-29.9793 12.70112,-52.88932 4.46083,-17.84604 10.92189,-30.78103 22.95514,-41.90298 14.47926,-13.30579 28.87794,-22.00356 43.36072,-27.62607 17.83724,-6.92477 35.8555,-5.40451 47.72014,0.5388 6.61194,3.3121 13.41418,9.56465 19.09098,17.54818 7.3497,10.33621 12.0289,23.53999 13.8762,39.15585 0.5616,4.74752 0.7673,16.61194 0.3822,22.04514 -0.6516,9.19444 -2.4486,20.68804 -4.2011,26.87082 -0.1512,0.53346 -0.2504,0.54132 -8.7832,0.69644 -4.7466,0.0864 -28.18292,0.33756 -52.08062,0.55838 -23.8977,0.2208 -43.46592,0.41896 -43.48494,0.44034 -0.02,0.0214 -0.33944,1.71728 -0.71202,3.76868 -2.67772,14.7428 -1.58836,25.13588 3.4118,32.55094 3.23122,4.79176 8.98154,8.45492 16.1929,10.31546 4.86514,1.2552 9.08954,1.88502 12.7192,1.8963 3.7335,0.012 4.65236,-0.26928 7.1275,-2.17884 4.25224,-3.28058 7.43974,-10.94044 8.45914,-20.32808 l 0.30544,-2.8129 1.14822,-0.1422 c 0.63152,-0.0782 2.94412,-0.37564 5.13912,-0.66092 7.64156,-0.99316 13.66204,-1.32938 21.52356,-1.20198 7.78882,0.1262 10.47256,0.40856 15.1288,1.59158 4.1233,1.04762 7.8949,3.00278 8.6686,4.49368 2.4239,4.67128 -6.7219,16.2535 -26.07096,33.01638 -8.42224,7.2965 -29.32742,23.65202 -31.90468,24.96114 -2.67512,1.35884 -10.80736,2.89352 -18.87162,3.5614 -2.75918,0.2285 -10.5236,0.27858 -13.6414,0.088 l 0,0 z m 78.9815,-114.07716 c 0.3249,-0.52558 0.5355,-7.73508 0.3894,-13.32686 -0.2208,-8.45184 -0.9454,-14.23046 -2.7085,-21.59886 -3.71868,-15.54165 -11.01982,-25.97128 -21.8442,-31.20433 -7.58696,-3.66792 -17.04228,-4.42333 -24.6303,-1.96777 -12.9984,4.20641 -24.03744,17.23021 -30.47216,35.9509 -3.67338,10.68704 -5.12716,22.35296 -3.8374,30.79328 l 0.30482,1.9948 41.31634,-0.1866 c 28.67016,-0.1294 41.3671,-0.2686 41.482,-0.45462 z"
     id="path3002-2"
     inkscape:connector-curvature="0"
     sodipodi:nodetypes="csssccsssscccscssscssccssscsssccccsssssscscc" />
</svg>
