<?xml version="1.0" encoding="UTF-8" standalone="no"?>
<!-- Created with Inkscape (http://www.inkscape.org/) -->
<svg xmlns:dc="http://purl.org/dc/elements/1.1/" xmlns:cc="http://creativecommons.org/ns#" xmlns:rdf="http://www.w3.org/1999/02/22-rdf-syntax-ns#" xmlns:svg="http://www.w3.org/2000/svg" xmlns="http://www.w3.org/2000/svg" xmlns:sodipodi="http://sodipodi.sourceforge.net/DTD/sodipodi-0.dtd" xmlns:inkscape="http://www.inkscape.org/namespaces/inkscape" width="548.9375" height="157.84622" id="svg2" version="1.1" inkscape:version="0.48.2 r9819" sodipodi:docname="orange_sport_car.svg">
  <defs id="defs4">
    <clipPath clipPathUnits="userSpaceOnUse" id="clipPath3822">
      <path sodipodi:nodetypes="cccccccccccscccccccccccc" inkscape:connector-curvature="0" id="path3824" d="m -494.28571,420.93361 -31.42858,-145.71428 c 106.64664,-61.93337 210.43299,-127.95287 340,-157.14286 78.26471,-6.45484 168.513899,2.07094 234.285719,-20.000002 C 158.48519,41.42105 265.69688,-18.611962 388.57143,-59.066389 c 190.66998,-29.984063 362.13615,-14.359078 525.71428,20 L 1277.1429,69.50504 c 55.2199,-1.230471 105.114,3.752483 179.5973,-19.952062 L 1451.4286,103.79075 1500,258.07647 c -46.8923,133.27643 -60.4581,114.20294 -85.7143,148.57143 0,0 -88.5714,40 -97.1428,25.71428 -8.5715,-14.28571 -2.8572,-148.57143 -2.8572,-148.57143 -34.6045,-60.80097 -84.0848,-109.85782 -182.8571,-120 -109.1914,7.67879 -149.99388,65.33416 -171.4286,137.14286 -16.28144,53.33333 -12.98708,106.66667 -5.71429,160 l -220,-11.42857 -57.14285,-22.85714 -582.857146,14.28571 0,-148.57143 C 73.291928,234.51927 45.006985,179.1827 -82.857143,158.07647 -181.85388,169.453 -240.15501,219.51748 -274.59252,292.05538 l 3.16395,160.3068 z" style="fill:#f0aa3c;fill-opacity:1;stroke:#100000;stroke-width:2;stroke-miterlimit:4;stroke-opacity:1;stroke-dasharray:none;stroke-dashoffset:2"/>
    </clipPath>
    <clipPath clipPathUnits="userSpaceOnUse" id="clipPath3832">
      <path sodipodi:nodetypes="cccccccccccscccccccccccc" inkscape:connector-curvature="0" id="path3834" d="m -494.28571,420.93361 -31.42858,-145.71428 c 106.64664,-61.93337 210.43299,-127.95287 340,-157.14286 78.26471,-6.45484 168.513899,2.07094 234.285719,-20.000002 C 158.48519,41.42105 265.69688,-18.611962 388.57143,-59.066389 c 190.66998,-29.984063 362.13615,-14.359078 525.71428,20 L 1277.1429,69.50504 c 55.2199,-1.230471 105.114,3.752483 179.5973,-19.952062 L 1451.4286,103.79075 1500,258.07647 c -46.8923,133.27643 -60.4581,114.20294 -85.7143,148.57143 0,0 -88.5714,40 -97.1428,25.71428 -8.5715,-14.28571 -2.8572,-148.57143 -2.8572,-148.57143 -34.6045,-60.80097 -84.0848,-109.85782 -182.8571,-120 -109.1914,7.67879 -149.99388,65.33416 -171.4286,137.14286 -16.28144,53.33333 -12.98708,106.66667 -5.71429,160 l -220,-11.42857 -57.14285,-22.85714 -582.857146,14.28571 0,-148.57143 C 73.291928,234.51927 45.006985,179.1827 -82.857143,158.07647 -181.85388,169.453 -240.15501,219.51748 -274.59252,292.05538 l 3.16395,160.3068 z" style="fill:#f0aa3c;fill-opacity:1;stroke:#100000;stroke-width:2;stroke-miterlimit:4;stroke-opacity:1;stroke-dasharray:none;stroke-dashoffset:2"/>
    </clipPath>
  </defs>
  <sodipodi:namedview id="base" pagecolor="#ffffff" bordercolor="#666666" borderopacity="1.0" inkscape:pageopacity="0.0" inkscape:pageshadow="2" inkscape:zoom="0.25541378" inkscape:cx="1698.1635" inkscape:cy="-27.979749" inkscape:document-units="px" inkscape:current-layer="layer1" showgrid="false" inkscape:snap-global="false" fit-margin-top="0" fit-margin-left="0" fit-margin-right="0" fit-margin-bottom="0" inkscape:window-width="1024" inkscape:window-height="708" inkscape:window-x="-4" inkscape:window-y="-4" inkscape:window-maximized="1">
    <inkscape:grid type="xygrid" id="grid2996" empspacing="5" visible="true" enabled="true" snapvisiblegridlinesonly="true"/>
  </sodipodi:namedview>
  <metadata id="metadata7">
    <rdf:RDF>
      <cc:Work rdf:about="">
        <dc:format>image/svg+xml</dc:format>
        <dc:type rdf:resource="http://purl.org/dc/dcmitype/StillImage"/>
        <dc:title/>
      </cc:Work>
    </rdf:RDF>
  </metadata>
  <g inkscape:label="Layer 1" inkscape:groupmode="layer" id="layer1" transform="translate(2080.9063,521.84487)">
    <path style="opacity:0.76000001;fill:#4d4d4d;fill-opacity:1;fill-rule:evenodd;stroke:#100000;stroke-width:0.5418669;stroke-miterlimit:4;stroke-opacity:1;stroke-dasharray:none;stroke-dashoffset:2" d="m -1687.5845,-384.611 110.5554,-6.21874 c 0,0 6.2187,-49.74993 4.4913,-50.09541 -1.7274,-0.34549 -53.5502,-27.98434 -53.5502,-27.98434 l -59.7691,29.36628 z" id="path3800" inkscape:connector-curvature="0"/>
    <path style="opacity:0.76000001;fill:#4d4d4d;stroke:#100000;stroke-width:0.5418669;stroke-miterlimit:4;stroke-opacity:1;stroke-dasharray:none;stroke-dashoffset:2" d="m -2013.3774,-444.38001 c 0,1.38195 -6.9097,57.35061 -6.9097,57.35061 l 114.7012,1.72743 c 0,0 -2.0729,-59.42352 -4.4913,-61.49644 -2.4184,-2.07291 -48.7135,-17.96525 -48.7135,-17.96525 z" id="path3796" inkscape:connector-curvature="0"/>
    <path style="fill:#ffb021;fill-opacity:1;stroke:#100000;stroke-width:0;stroke-miterlimit:4;stroke-opacity:1;stroke-dasharray:none;stroke-dashoffset:2" d="m -2072.3256,-387.43463 -8.515,-39.47887 c 28.8941,-16.77982 57.0133,-34.66671 92.1174,-42.57526 21.2045,-1.74883 45.656,0.56109 63.4758,-5.41867 29.7793,-15.34984 58.8265,-31.61479 92.1174,-42.57525 51.6588,-8.12368 98.1148,-3.89035 142.4335,5.41867 l 98.3102,29.41563 c 14.9609,-0.33338 28.4789,1.01667 48.6589,-5.40568 l -1.4391,14.69482 13.1596,41.80117 c -12.7047,36.10903 -16.3801,30.94139 -23.2229,40.25296 0,0 -23.9969,10.83734 -26.3192,6.96686 -2.3223,-3.87048 -0.7741,-40.25297 -0.7741,-40.25297 -9.3755,-16.47301 -22.7814,-29.76415 -49.5421,-32.51201 -29.5836,2.08044 -40.6383,17.70121 -46.4457,37.15658 -4.4112,14.44979 -3.5187,28.89958 -1.5482,43.34936 l -59.6054,-3.09639 -15.4819,-6.19276 -157.9155,3.87048 0,-40.25297 c -5.6879,-15.67158 -13.3512,-30.6641 -47.9939,-36.38249 -26.8215,3.08228 -42.6172,16.64642 -51.9475,36.29937 l 0.8572,43.43247 z" id="path2998" inkscape:connector-curvature="0" sodipodi:nodetypes="cccccccccccscccccccccccc"/>
    <path style="opacity:0.44394621;fill:#1a1a1a;stroke:#100000;stroke-width:0.5418669;stroke-miterlimit:4;stroke-opacity:1;stroke-dasharray:none;stroke-dashoffset:2" d="m -1864.2774,-469.94594 39.3853,-38.00342 c 0,-2.65307 90.8628,-4.79177 90.5173,1.03646 -0.1243,2.09783 -8.6372,31.43919 -8.6372,31.43919 z" id="path3000" inkscape:connector-curvature="0" sodipodi:nodetypes="ccscc"/>
    <path style="opacity:0.76000001;fill:#333333;stroke:#100000;stroke-width:0.5418669;stroke-miterlimit:4;stroke-opacity:1;stroke-dasharray:none;stroke-dashoffset:2" d="m -1732.1521,-507.60387 c 20.1389,2.63858 42.4708,6.82511 78.0797,20.38365 l 0,5.52777 -84.2985,5.18228 z" id="path3772" inkscape:connector-curvature="0" sodipodi:nodetypes="ccccc"/>
    <path style="opacity:0.76000001;fill:none;stroke:#100000;stroke-width:0.5418669;stroke-miterlimit:4;stroke-opacity:1;stroke-dasharray:none;stroke-dashoffset:2" d="m -1879.6745,-467.18206 c -16.2049,10.27053 -7.4401,40.75466 -3.4548,67.36969" id="path3774" inkscape:connector-curvature="0" sodipodi:nodetypes="cc"/>
    <path style="opacity:0.76000001;fill:none;stroke:#100000;stroke-width:1.26454914;stroke-miterlimit:4;stroke-opacity:1;stroke-dasharray:none;stroke-dashoffset:2" d="m -1730.7702,-474.78274 c 6.9383,7.67292 0.1053,34.38265 -10.0191,65.64226 -46.9156,7.49878 -94.6299,7.01104 -141.9945,10.01908" id="path3776" inkscape:connector-curvature="0" sodipodi:nodetypes="ccc"/>
    <path sodipodi:type="arc" style="opacity:0.76000001;fill:none;stroke:#100000;stroke-width:2;stroke-miterlimit:4;stroke-opacity:1;stroke-dasharray:none;stroke-dashoffset:2" id="path3778" sodipodi:cx="-90.536911" sodipodi:cy="345.91922" sodipodi:rx="159.39597" sodipodi:ry="159.39597" d="m 68.859055,345.91922 c 0,88.03196 -71.364005,159.39597 -159.395966,159.39597 -88.031959,0 -159.395969,-71.36401 -159.395969,-159.39597 0,-88.03196 71.36401,-159.39597 159.395969,-159.39597 88.031961,0 159.395966,71.36401 159.395966,159.39597 z" transform="matrix(0.27093344,0,0,0.27093344,-1938.407,-501.47962)"/>
    <path d="m 68.859055,345.91922 c 0,88.03196 -71.364005,159.39597 -159.395966,159.39597 -88.031959,0 -159.395969,-71.36401 -159.395969,-159.39597 0,-88.03196 71.36401,-159.39597 159.395969,-159.39597 88.031961,0 159.395966,71.36401 159.395966,159.39597 z" sodipodi:ry="159.39597" sodipodi:rx="159.39597" sodipodi:cy="345.91922" sodipodi:cx="-90.536911" id="path3780" style="opacity:0.76000001;fill:none;stroke:#100000;stroke-width:2;stroke-miterlimit:4;stroke-opacity:1;stroke-dasharray:none;stroke-dashoffset:2" sodipodi:type="arc" transform="matrix(0.27093344,0,0,0.27093344,-1938.407,-501.47962)"/>
    <path sodipodi:type="arc" style="opacity:0.76000001;fill:none;stroke:#100000;stroke-width:2;stroke-miterlimit:4;stroke-opacity:1;stroke-dasharray:none;stroke-dashoffset:2" id="path3782" sodipodi:cx="-90.536911" sodipodi:cy="345.91922" sodipodi:rx="159.39597" sodipodi:ry="159.39597" d="m 68.859055,345.91922 c 0,88.03196 -71.364005,159.39597 -159.395966,159.39597 -88.031959,0 -159.395969,-71.36401 -159.395969,-159.39597 0,-88.03196 71.36401,-159.39597 159.395969,-159.39597 88.031961,0 159.395966,71.36401 159.395966,159.39597 z" transform="matrix(0.20416085,0,0,0.20416085,-1944.4524,-478.3817)"/>
    <path sodipodi:type="arc" style="fill:#000000;stroke:#100000;stroke-width:2;stroke-miterlimit:4;stroke-opacity:1;stroke-dasharray:none;stroke-dashoffset:2" id="path3784" sodipodi:cx="-90.536911" sodipodi:cy="345.91922" sodipodi:rx="159.39597" sodipodi:ry="159.39597" d="m 68.859055,345.91922 c 0,88.03196 -71.364005,159.39597 -159.395966,159.39597 -88.031959,0 -159.395969,-71.36401 -159.395969,-159.39597 0,-88.03196 71.36401,-159.39597 159.395969,-159.39597 88.031961,0 159.395966,71.36401 159.395966,159.39597 z" transform="matrix(0.27093344,0,0,0.27093344,-1938.407,-501.47962)"/>
    <path transform="matrix(0.20416085,0,0,0.20416085,-1944.4524,-478.3817)" d="m 68.859055,345.91922 c 0,88.03196 -71.364005,159.39597 -159.395966,159.39597 -88.031959,0 -159.395969,-71.36401 -159.395969,-159.39597 0,-88.03196 71.36401,-159.39597 159.395969,-159.39597 88.031961,0 159.395966,71.36401 159.395966,159.39597 z" sodipodi:ry="159.39597" sodipodi:rx="159.39597" sodipodi:cy="345.91922" sodipodi:cx="-90.536911" id="path3786" style="opacity:0.76000001;fill:#808080;stroke:#100000;stroke-width:2;stroke-miterlimit:4;stroke-opacity:1;stroke-dasharray:none;stroke-dashoffset:2" sodipodi:type="arc"/>
    <path d="m 68.859055,345.91922 c 0,88.03196 -71.364005,159.39597 -159.395966,159.39597 -88.031959,0 -159.395969,-71.36401 -159.395969,-159.39597 0,-88.03196 71.36401,-159.39597 159.395969,-159.39597 88.031961,0 159.395966,71.36401 159.395966,159.39597 z" sodipodi:ry="159.39597" sodipodi:rx="159.39597" sodipodi:cy="345.91922" sodipodi:cx="-90.536911" id="path3788" style="fill:#000000;fill-opacity:1;stroke:#100000;stroke-width:2;stroke-miterlimit:4;stroke-opacity:1;stroke-dasharray:none;stroke-dashoffset:2" sodipodi:type="arc" transform="matrix(0.27093344,0,0,0.27093344,-1605.3589,-502.51608)"/>
    <path sodipodi:type="arc" style="opacity:0.76000001;fill:#999999;stroke:#100000;stroke-width:2;stroke-miterlimit:4;stroke-opacity:1;stroke-dasharray:none;stroke-dashoffset:2" id="path3790" sodipodi:cx="-90.536911" sodipodi:cy="345.91922" sodipodi:rx="159.39597" sodipodi:ry="159.39597" d="m 68.859055,345.91922 c 0,88.03196 -71.364005,159.39597 -159.395966,159.39597 -88.031959,0 -159.395969,-71.36401 -159.395969,-159.39597 0,-88.03196 71.36401,-159.39597 159.395969,-159.39597 88.031961,0 159.395966,71.36401 159.395966,159.39597 z" transform="matrix(0.20416085,0,0,0.20416085,-1611.4043,-479.41816)"/>
    <path style="opacity:0.76000001;fill:#808080;stroke:#100000;stroke-width:2;stroke-miterlimit:4;stroke-opacity:1;stroke-dasharray:none;stroke-dashoffset:2" d="m -461.61074,229.87896 c 107.70028,24.14973 179.47011,3.69614 188.72483,-94.36241" id="path3792" inkscape:connector-curvature="0" sodipodi:nodetypes="cc" clip-path="url(#clipPath3832)" transform="matrix(0.27093344,0,0,0.27093344,-1938.407,-501.47962)"/>
    <path style="opacity:0.76000001;fill:#ff932a;fill-opacity:1;stroke:#100000;stroke-width:0.5418669;stroke-miterlimit:4;stroke-opacity:1;stroke-dasharray:none;stroke-dashoffset:2" d="m -1855.3753,-483.18956 c -1.3617,1.0082 -2.6111,2.07254 -2.7639,3.68518 0.4175,1.12288 -0.026,1.67162 2.0729,3.91551 5.8733,2.59193 11.7465,2.80194 17.6198,2.99421 2.0704,-0.50027 2.5077,-1.8171 2.7639,-3.22454 l 0.5758,-8.7523 c -0.4047,-1.51469 -1.441,-2.39776 -2.7639,-2.99421 -6.6934,-0.0131 -12.9434,0.73395 -17.5046,4.37615 z" id="path3802" inkscape:connector-curvature="0" sodipodi:nodetypes="cccccccc"/>
    <g id="g3816" clip-path="url(#clipPath3822)" transform="matrix(0.27093344,0,0,0.27093344,-1938.407,-501.47962)">
      <path inkscape:connector-curvature="0" id="path3794" d="M -40.805369,87.060169 31.879195,111.28836 257.58389,117.6642 368.52349,1.6239276 385.10067,-43.006945 322.61745,-101.66466" style="opacity:0.76000001;fill:#808080;stroke:#100000;stroke-width:2;stroke-miterlimit:4;stroke-opacity:1;stroke-dasharray:none;stroke-dashoffset:2"/>
      <path sodipodi:nodetypes="ccccc" inkscape:connector-curvature="0" id="path3804" d="m 1488.9975,94.054272 -94.9789,-14.481097 c -38.8357,39.729105 -33.2441,47.929225 -39.1842,64.313105 1.7484,6.24675 1.9997,12.4935 10.222,18.74025 43.1593,2.89975 86.3187,-3.4277 129.478,-8.09238" style="opacity:0.76000001;fill:#ff0000;stroke:#100000;stroke-width:2;stroke-miterlimit:4;stroke-opacity:1;stroke-dasharray:none;stroke-dashoffset:2"/>
      <path inkscape:connector-curvature="0" id="path3806" d="m -549.98592,277.65083 c 16.16446,9.85638 63.47508,19.71276 63.47508,23.26106 0,3.54829 16.55871,31.93466 16.55871,31.93466 0,0 -68.60039,-3.15404 -71.75443,-3.15404 -3.15404,0 -8.27936,-52.04168 -8.27936,-52.04168 z" style="opacity:0.76000001;fill:#ff8700;fill-opacity:1;stroke:#100000;stroke-width:2;stroke-miterlimit:4;stroke-opacity:1;stroke-dasharray:none;stroke-dashoffset:2"/>
      <path inkscape:connector-curvature="0" id="path3810" d="m -525.14785,341.91442 c 2.36553,0.39426 57.167,2.75979 57.95551,5.91383 0.78851,3.15404 9.85638,28.78062 9.85638,28.78062 0,0 -11.82766,18.92425 -13.40468,17.74148 -1.57702,-1.18276 -73.72571,-9.06786 -73.72571,-9.06786 z" style="opacity:0.76000001;fill:#ff8700;fill-opacity:1;fill-rule:evenodd;stroke:#100000;stroke-width:2;stroke-miterlimit:4;stroke-opacity:1;stroke-dasharray:none;stroke-dashoffset:2"/>
    </g>
    <path sodipodi:type="arc" style="opacity:0.76000001;fill:#f9f9f9;stroke:#100000;stroke-width:2;stroke-miterlimit:4;stroke-opacity:1;stroke-dasharray:none;stroke-dashoffset:2" id="path3812" sodipodi:cx="911.67413" sodipodi:cy="234.11049" sodipodi:rx="36.179512" sodipodi:ry="36.179512" d="m 947.85365,234.11049 c 0,19.98139 -16.19812,36.17951 -36.17952,36.17951 -19.98139,0 -36.17951,-16.19812 -36.17951,-36.17951 0,-19.98139 16.19812,-36.17951 36.17951,-36.17951 19.9814,0 36.17952,16.19812 36.17952,36.17951 z" transform="matrix(0.27093344,0,0,0.27093344,-1938.407,-501.47962)"/>
    <g id="layer1-6" inkscape:label="Layer 1" transform="matrix(0.04504598,0,0,0.04504598,-1962.0191,-410.29178)">
      <path transform="matrix(1.2280702,0,0,1.2280702,0,-2.819445)" sodipodi:type="arc" style="fill:#000000;fill-opacity:1;stroke:#ff0000;stroke-width:1;stroke-miterlimit:4;stroke-opacity:1;stroke-dasharray:none;stroke-dashoffset:2" id="path4015" sodipodi:cx="0" sodipodi:cy="12.362183" sodipodi:rx="814.28571" sodipodi:ry="814.28571" d="M 814.28571,12.362183 C 814.28571,462.07976 449.71758,826.64789 0,826.64789 c -449.71758,0 -814.28571,-364.56813 -814.28571,-814.285707 0,-449.717573 364.56813,-814.285703 814.28571,-814.285703 449.71758,0 814.28571,364.56813 814.28571,814.285703 z"/>
      <path d="M 814.28571,12.362183 C 814.28571,462.07976 449.71758,826.64789 0,826.64789 c -449.71758,0 -814.28571,-364.56813 -814.28571,-814.285707 0,-449.717573 364.56813,-814.285703 814.28571,-814.285703 449.71758,0 814.28571,364.56813 814.28571,814.285703 z" sodipodi:ry="814.28571" sodipodi:rx="814.28571" sodipodi:cy="12.362183" sodipodi:cx="0" id="path3766" style="fill:#c6d2d2;fill-opacity:1;stroke:#ff0000;stroke-width:1;stroke-miterlimit:4;stroke-opacity:1;stroke-dasharray:none;stroke-dashoffset:2" sodipodi:type="arc"/>
      <path transform="translate(0,-2.8571167)" d="M 742.85712,12.362183 C 742.85712,422.63084 410.26866,755.2193 0,755.2193 c -410.26866,0 -742.85712,-332.58846 -742.85712,-742.857117 0,-410.268653 332.58846,-742.857113 742.85712,-742.857113 410.26866,0 742.85712,332.58846 742.85712,742.857113 z" sodipodi:ry="742.85712" sodipodi:rx="742.85712" sodipodi:cy="12.362183" sodipodi:cx="0" id="path3768" style="fill:#4d4d4d;stroke:#ff0000;stroke-width:1;stroke-miterlimit:4;stroke-opacity:1;stroke-dasharray:none;stroke-dashoffset:2" sodipodi:type="arc"/>
      <path d="M 240,12.362183 C 240,144.91052 132.54834,252.36218 0,252.36218 c -132.54834,0 -240,-107.45166 -240,-239.999997 0,-132.548343 107.45166,-240.000003 240,-240.000003 132.54834,0 240,107.45166 240,240.000003 z" sodipodi:ry="240" sodipodi:rx="240" sodipodi:cy="12.362183" sodipodi:cx="0" id="path3770" style="fill:#b3b3b3;stroke:#ff0000;stroke-width:1;stroke-miterlimit:4;stroke-opacity:1;stroke-dasharray:none;stroke-dashoffset:2" sodipodi:type="arc"/>
      <path sodipodi:nodetypes="cccccc" inkscape:connector-curvature="0" id="path2989" d="m 80,12.362183 120,759.999997 -120,0 c -13.963931,-37.78156 -8.940818,-92.17678 -80,-80 L 0,12.362183 z" style="fill:#cccccc;stroke:#ff0000;stroke-width:1;stroke-miterlimit:4;stroke-opacity:1;stroke-dasharray:none;stroke-dashoffset:2"/>
      <path style="fill:#cccccc;stroke:#ff0000;stroke-width:1;stroke-miterlimit:4;stroke-opacity:1;stroke-dasharray:none;stroke-dashoffset:2" d="M 80,12.362183 200,772.36218 c -37.30632,8.82161 -73.36105,18.64449 -120,20 -13.963931,-37.78156 -8.940818,-112.17678 -80,-100 L 0,12.362183 z" id="path3772-1" inkscape:connector-curvature="0" sodipodi:nodetypes="cccccc"/>
      <path sodipodi:nodetypes="cccccc" inkscape:connector-curvature="0" id="path3774-4" d="M -80,12.362183 -200,772.36218 c 37.30632,8.82161 73.36105,18.64449 120,20 13.96393,-37.78156 8.94082,-112.17678 80,-100 L 0,12.362183 z" style="fill:#cccccc;stroke:#ff0000;stroke-width:1;stroke-miterlimit:4;stroke-opacity:1;stroke-dasharray:none;stroke-dashoffset:2"/>
      <g id="g3788" style="stroke:#040000;stroke-width:0;stroke-miterlimit:4;stroke-opacity:1;stroke-dasharray:none">
        <path id="path3790-2" d="M 80,12.362183 200,772.36218 c -37.30632,8.82161 -73.36105,18.64449 -120,20 -13.963931,-37.78156 -8.940818,-112.17678 -80,-100 L 0,12.362183 z" style="fill:#cccccc;stroke:#040000;stroke-width:0;stroke-miterlimit:4;stroke-opacity:1;stroke-dasharray:none;stroke-dashoffset:2" inkscape:connector-curvature="0"/>
        <path id="path3792-3" transform="matrix(0.30901699,0.95105652,-0.95105652,0.30901699,0,0)" d="M 80,12.362183 200,772.36218 c -37.30632,8.82161 -73.36105,18.64449 -120,20 -13.963931,-37.78156 -8.940818,-112.17678 -80,-100 L 0,12.362183 z" style="fill:#cccccc;stroke:#040000;stroke-width:0;stroke-miterlimit:4;stroke-opacity:1;stroke-dasharray:none;stroke-dashoffset:2" inkscape:connector-curvature="0"/>
        <path id="path3794-2" transform="matrix(-0.80901699,0.58778525,-0.58778525,-0.80901699,0,0)" d="M 80,12.362183 200,772.36218 c -37.30632,8.82161 -73.36105,18.64449 -120,20 -13.963931,-37.78156 -8.940818,-112.17678 -80,-100 L 0,12.362183 z" style="fill:#cccccc;stroke:#040000;stroke-width:0;stroke-miterlimit:4;stroke-opacity:1;stroke-dasharray:none;stroke-dashoffset:2" inkscape:connector-curvature="0"/>
        <path id="path3796-2" transform="matrix(-0.80901699,-0.58778525,0.58778525,-0.80901699,0,0)" d="M 80,12.362183 200,772.36218 c -37.30632,8.82161 -73.36105,18.64449 -120,20 -13.963931,-37.78156 -8.940818,-112.17678 -80,-100 L 0,12.362183 z" style="fill:#cccccc;stroke:#040000;stroke-width:0;stroke-miterlimit:4;stroke-opacity:1;stroke-dasharray:none;stroke-dashoffset:2" inkscape:connector-curvature="0"/>
        <path id="path3798" transform="matrix(0.30901699,-0.95105652,0.95105652,0.30901699,0,0)" d="M 80,12.362183 200,772.36218 c -37.30632,8.82161 -73.36105,18.64449 -120,20 -13.963931,-37.78156 -8.940818,-112.17678 -80,-100 L 0,12.362183 z" style="fill:#cccccc;stroke:#040000;stroke-width:0;stroke-miterlimit:4;stroke-opacity:1;stroke-dasharray:none;stroke-dashoffset:2" inkscape:connector-curvature="0"/>
        <path id="path3800-1" d="M -80,12.362183 -200,772.36218 c 37.30632,8.82161 73.36105,18.64449 120,20 13.96393,-37.78156 8.94082,-112.17678 80,-100 L 0,12.362183 z" style="fill:#cccccc;stroke:#040000;stroke-width:0;stroke-miterlimit:4;stroke-opacity:1;stroke-dasharray:none;stroke-dashoffset:2" inkscape:connector-curvature="0"/>
        <path id="path3802-6" transform="matrix(0.30901699,0.95105652,-0.95105652,0.30901699,0,0)" d="M -80,12.362183 -200,772.36218 c 37.30632,8.82161 73.36105,18.64449 120,20 13.96393,-37.78156 8.94082,-112.17678 80,-100 L 0,12.362183 z" style="fill:#cccccc;stroke:#040000;stroke-width:0;stroke-miterlimit:4;stroke-opacity:1;stroke-dasharray:none;stroke-dashoffset:2" inkscape:connector-curvature="0"/>
        <path id="path3804-8" transform="matrix(-0.80901699,0.58778525,-0.58778525,-0.80901699,0,0)" d="M -80,12.362183 -200,772.36218 c 37.30632,8.82161 73.36105,18.64449 120,20 13.96393,-37.78156 8.94082,-112.17678 80,-100 L 0,12.362183 z" style="fill:#cccccc;stroke:#040000;stroke-width:0;stroke-miterlimit:4;stroke-opacity:1;stroke-dasharray:none;stroke-dashoffset:2" inkscape:connector-curvature="0"/>
        <path id="path3806-5" transform="matrix(-0.80901699,-0.58778525,0.58778525,-0.80901699,0,0)" d="M -80,12.362183 -200,772.36218 c 37.30632,8.82161 73.36105,18.64449 120,20 13.96393,-37.78156 8.94082,-112.17678 80,-100 L 0,12.362183 z" style="fill:#cccccc;stroke:#040000;stroke-width:0;stroke-miterlimit:4;stroke-opacity:1;stroke-dasharray:none;stroke-dashoffset:2" inkscape:connector-curvature="0"/>
        <path id="path3808" transform="matrix(0.30901699,-0.95105652,0.95105652,0.30901699,0,0)" d="M -80,12.362183 -200,772.36218 c 37.30632,8.82161 73.36105,18.64449 120,20 13.96393,-37.78156 8.94082,-112.17678 80,-100 L 0,12.362183 z" style="fill:#cccccc;stroke:#040000;stroke-width:0;stroke-miterlimit:4;stroke-opacity:1;stroke-dasharray:none;stroke-dashoffset:2" inkscape:connector-curvature="0"/>
      </g>
      <path style="fill:#000000;fill-opacity:1;fill-rule:evenodd;stroke:#040000;stroke-width:0;stroke-miterlimit:4;stroke-opacity:1;stroke-dashoffset:2" d="m 40,172.36218 -54.641016,14.64102 -40,-40 L -40,92.362183 14.641016,77.721166 l 40,40.000004 z" id="path3835" inkscape:connector-curvature="0"/>
      <g id="g3862">
        <path style="fill:#000000;fill-opacity:1;fill-rule:evenodd;stroke:#040000;stroke-width:0;stroke-miterlimit:4;stroke-opacity:1;stroke-dashoffset:2" d="m 40,172.36218 -54.641016,14.64102 -40,-40 L -40,92.362183 14.641016,77.721166 l 40,40.000004 z" id="path3864" inkscape:connector-curvature="0"/>
        <path style="fill:#000000;fill-opacity:1;fill-rule:evenodd;stroke:#040000;stroke-width:0;stroke-miterlimit:4;stroke-opacity:1;stroke-dashoffset:2" d="m 40,172.36218 -54.641016,14.64102 -40,-40 L -40,92.362183 14.641016,77.721166 l 40,40.000004 z" transform="matrix(0.30901699,0.95105652,-0.95105652,0.30901699,0,0)" id="path3866" inkscape:connector-curvature="0"/>
        <path style="fill:#000000;fill-opacity:1;fill-rule:evenodd;stroke:#040000;stroke-width:0;stroke-miterlimit:4;stroke-opacity:1;stroke-dashoffset:2" d="m 40,172.36218 -54.641016,14.64102 -40,-40 L -40,92.362183 14.641016,77.721166 l 40,40.000004 z" transform="matrix(-0.80901699,0.58778525,-0.58778525,-0.80901699,0,0)" id="path3868" inkscape:connector-curvature="0"/>
        <path style="fill:#000000;fill-opacity:1;fill-rule:evenodd;stroke:#040000;stroke-width:0;stroke-miterlimit:4;stroke-opacity:1;stroke-dashoffset:2" d="m 40,172.36218 -54.641016,14.64102 -40,-40 L -40,92.362183 14.641016,77.721166 l 40,40.000004 z" transform="matrix(-0.80901699,-0.58778525,0.58778525,-0.80901699,0,0)" id="path3870" inkscape:connector-curvature="0"/>
        <path style="fill:#000000;fill-opacity:1;fill-rule:evenodd;stroke:#040000;stroke-width:0;stroke-miterlimit:4;stroke-opacity:1;stroke-dashoffset:2" d="m 40,172.36218 -54.641016,14.64102 -40,-40 L -40,92.362183 14.641016,77.721166 l 40,40.000004 z" transform="matrix(0.30901699,-0.95105652,0.95105652,0.30901699,0,0)" id="path3872" inkscape:connector-curvature="0"/>
      </g>
      <g id="text3902" style="font-size:48px;font-style:normal;font-variant:normal;font-weight:normal;font-stretch:normal;text-align:start;line-height:125%;letter-spacing:0px;word-spacing:0px;writing-mode:lr-tb;text-anchor:start;fill:#000000;fill-opacity:1;stroke:none;font-family:Sans;-inkscape-font-specification:Sans">
        <path id="path3914" d="m -19.913658,18.838667 4.546875,1.148437 c -0.953157,3.734383 -2.667999,6.582036 -5.144531,8.542969 -2.476588,1.960938 -5.503929,2.941406 -9.082032,2.941406 -3.703139,0 -6.714855,-0.753906 -9.035156,-2.261718 -2.32032,-1.50781 -4.085943,-3.691401 -5.296875,-6.550782 -1.21094,-2.859363 -1.816409,-5.929673 -1.816406,-9.210937 -3e-6,-3.5781041 0.683591,-6.6991947 2.050781,-9.3632813 1.367182,-2.6640331 3.312492,-4.68746855 5.835938,-6.0703125 2.523424,-1.3827783 5.300765,-2.0741838 8.332031,-2.0742188 3.437478,3.5e-5 6.3281,0.8750341 8.671875,2.625 2.34372,1.75003059 3.976531,4.2109656 4.898437,7.3828125 l -4.476562,1.0546875 c -0.796902,-2.4999736 -1.953151,-4.3202843 -3.46875,-5.4609375 -1.515648,-1.1405945 -3.421896,-1.71090643 -5.71875,-1.71093748 -2.640641,3.105e-5 -4.84767,0.63284292 -6.621094,1.89843748 -1.773448,1.2656529 -3.01954,2.96487 -3.738281,5.0976563 -0.718758,2.1328344 -1.078132,4.3320508 -1.078125,6.5976558 -7e-6,2.92189 0.425774,5.472669 1.277344,7.652344 0.851553,2.179695 2.17577,3.8086 3.972656,4.886719 1.796861,1.078129 3.742171,1.617191 5.835937,1.617187 2.546855,4e-6 4.703102,-0.734371 6.46875,-2.203125 1.765599,-1.468743 2.96091,-3.648428 3.585938,-6.539062 z" inkscape:connector-curvature="0"/>
        <path id="path3916" d="m -13.515221,30.885542 13.19531286,-34.3593751 4.89843754,0 14.0624996,34.3593751 -5.179687,0 -4.0078126,-10.40625 -14.3671875,0 -3.7734375,10.40625 z m 9.9140629,-14.109375 11.6484375,0 L 4.4613419,7.2605419 C 3.367575,4.3699434 2.5550759,1.9949458 2.0238419,0.13554192 1.5863268,2.3386955 0.96913994,4.5261933 0.17227936,6.6980419 z" inkscape:connector-curvature="0"/>
        <path id="path3918" d="m 22.391029,30.885542 0,-34.3593751 15.234375,0 c 3.062478,3.44e-5 5.390601,0.3086278 6.984375,0.9257813 1.593723,0.6172203 2.867159,1.70706294 3.820313,3.26953122 0.953094,1.56252858 1.429656,3.28908938 1.429687,5.17968748 -3.1e-5,2.4375226 -0.789093,4.4922081 -2.367187,6.1640621 -1.578152,1.671893 -4.01565,2.734392 -7.3125,3.1875 1.203102,0.57814 2.117164,1.148452 2.742187,1.710938 1.3281,1.218763 2.585911,2.742199 3.773438,4.570312 l 5.976562,9.351563 -5.71875,0 -4.546875,-7.148438 c -1.328147,-2.06249 -2.421896,-3.640614 -3.28125,-4.734375 -0.859394,-1.093737 -1.628925,-1.859361 -2.308593,-2.296875 -0.679705,-0.437485 -1.371111,-0.742172 -2.074219,-0.914062 -0.515641,-0.10936 -1.35939,-0.164047 -2.53125,-0.164063 l -5.273438,0 0,15.257813 z m 4.546875,-19.195313 9.773438,0 c 2.078105,2e-5 3.703103,-0.214824 4.875,-0.644531 1.171851,-0.429667 2.062475,-1.1171664 2.671875,-2.0624998 C 44.867566,8.0379085 45.172253,7.0105658 45.172279,5.9011669 45.172253,4.2761935 44.58241,2.9402574 43.402748,1.8933544 42.223037,0.84650945 40.359758,0.32307248 37.812904,0.32304192 l -10.875,0 z" inkscape:connector-curvature="0"/>
      </g>
    </g>
    <g transform="matrix(0.04504598,0,0,0.04504598,-1630.2769,-409.62962)" inkscape:label="Layer 1" id="g4650">
      <path d="M 814.28571,12.362183 C 814.28571,462.07976 449.71758,826.64789 0,826.64789 c -449.71758,0 -814.28571,-364.56813 -814.28571,-814.285707 0,-449.717573 364.56813,-814.285703 814.28571,-814.285703 449.71758,0 814.28571,364.56813 814.28571,814.285703 z" sodipodi:ry="814.28571" sodipodi:rx="814.28571" sodipodi:cy="12.362183" sodipodi:cx="0" id="path4652" style="fill:#000000;fill-opacity:1;stroke:#ff0000;stroke-width:1;stroke-miterlimit:4;stroke-opacity:1;stroke-dasharray:none;stroke-dashoffset:2" sodipodi:type="arc" transform="matrix(1.2280702,0,0,1.2280702,0,-2.819445)"/>
      <path sodipodi:type="arc" style="fill:#c6d2d2;fill-opacity:1;stroke:#ff0000;stroke-width:1;stroke-miterlimit:4;stroke-opacity:1;stroke-dasharray:none;stroke-dashoffset:2" id="path4654" sodipodi:cx="0" sodipodi:cy="12.362183" sodipodi:rx="814.28571" sodipodi:ry="814.28571" d="M 814.28571,12.362183 C 814.28571,462.07976 449.71758,826.64789 0,826.64789 c -449.71758,0 -814.28571,-364.56813 -814.28571,-814.285707 0,-449.717573 364.56813,-814.285703 814.28571,-814.285703 449.71758,0 814.28571,364.56813 814.28571,814.285703 z"/>
      <path sodipodi:type="arc" style="fill:#4d4d4d;stroke:#ff0000;stroke-width:1;stroke-miterlimit:4;stroke-opacity:1;stroke-dasharray:none;stroke-dashoffset:2" id="path4656" sodipodi:cx="0" sodipodi:cy="12.362183" sodipodi:rx="742.85712" sodipodi:ry="742.85712" d="M 742.85712,12.362183 C 742.85712,422.63084 410.26866,755.2193 0,755.2193 c -410.26866,0 -742.85712,-332.58846 -742.85712,-742.857117 0,-410.268653 332.58846,-742.857113 742.85712,-742.857113 410.26866,0 742.85712,332.58846 742.85712,742.857113 z" transform="translate(0,-2.8571167)"/>
      <path sodipodi:type="arc" style="fill:#b3b3b3;stroke:#ff0000;stroke-width:1;stroke-miterlimit:4;stroke-opacity:1;stroke-dasharray:none;stroke-dashoffset:2" id="path4658" sodipodi:cx="0" sodipodi:cy="12.362183" sodipodi:rx="240" sodipodi:ry="240" d="M 240,12.362183 C 240,144.91052 132.54834,252.36218 0,252.36218 c -132.54834,0 -240,-107.45166 -240,-239.999997 0,-132.548343 107.45166,-240.000003 240,-240.000003 132.54834,0 240,107.45166 240,240.000003 z"/>
      <path style="fill:#cccccc;stroke:#ff0000;stroke-width:1;stroke-miterlimit:4;stroke-opacity:1;stroke-dasharray:none;stroke-dashoffset:2" d="m 80,12.362183 120,759.999997 -120,0 c -13.963931,-37.78156 -8.940818,-92.17678 -80,-80 L 0,12.362183 z" id="path4660" inkscape:connector-curvature="0" sodipodi:nodetypes="cccccc"/>
      <path sodipodi:nodetypes="cccccc" inkscape:connector-curvature="0" id="path4662" d="M 80,12.362183 200,772.36218 c -37.30632,8.82161 -73.36105,18.64449 -120,20 -13.963931,-37.78156 -8.940818,-112.17678 -80,-100 L 0,12.362183 z" style="fill:#cccccc;stroke:#ff0000;stroke-width:1;stroke-miterlimit:4;stroke-opacity:1;stroke-dasharray:none;stroke-dashoffset:2"/>
      <path style="fill:#cccccc;stroke:#ff0000;stroke-width:1;stroke-miterlimit:4;stroke-opacity:1;stroke-dasharray:none;stroke-dashoffset:2" d="M -80,12.362183 -200,772.36218 c 37.30632,8.82161 73.36105,18.64449 120,20 13.96393,-37.78156 8.94082,-112.17678 80,-100 L 0,12.362183 z" id="path4664" inkscape:connector-curvature="0" sodipodi:nodetypes="cccccc"/>
      <g style="stroke:#040000;stroke-width:0;stroke-miterlimit:4;stroke-opacity:1;stroke-dasharray:none" id="g4666">
        <path inkscape:connector-curvature="0" style="fill:#cccccc;stroke:#040000;stroke-width:0;stroke-miterlimit:4;stroke-opacity:1;stroke-dasharray:none;stroke-dashoffset:2" d="M 80,12.362183 200,772.36218 c -37.30632,8.82161 -73.36105,18.64449 -120,20 -13.963931,-37.78156 -8.940818,-112.17678 -80,-100 L 0,12.362183 z" id="path4668"/>
        <path inkscape:connector-curvature="0" style="fill:#cccccc;stroke:#040000;stroke-width:0;stroke-miterlimit:4;stroke-opacity:1;stroke-dasharray:none;stroke-dashoffset:2" d="M 80,12.362183 200,772.36218 c -37.30632,8.82161 -73.36105,18.64449 -120,20 -13.963931,-37.78156 -8.940818,-112.17678 -80,-100 L 0,12.362183 z" transform="matrix(0.30901699,0.95105652,-0.95105652,0.30901699,0,0)" id="path4670"/>
        <path inkscape:connector-curvature="0" style="fill:#cccccc;stroke:#040000;stroke-width:0;stroke-miterlimit:4;stroke-opacity:1;stroke-dasharray:none;stroke-dashoffset:2" d="M 80,12.362183 200,772.36218 c -37.30632,8.82161 -73.36105,18.64449 -120,20 -13.963931,-37.78156 -8.940818,-112.17678 -80,-100 L 0,12.362183 z" transform="matrix(-0.80901699,0.58778525,-0.58778525,-0.80901699,0,0)" id="path4672"/>
        <path inkscape:connector-curvature="0" style="fill:#cccccc;stroke:#040000;stroke-width:0;stroke-miterlimit:4;stroke-opacity:1;stroke-dasharray:none;stroke-dashoffset:2" d="M 80,12.362183 200,772.36218 c -37.30632,8.82161 -73.36105,18.64449 -120,20 -13.963931,-37.78156 -8.940818,-112.17678 -80,-100 L 0,12.362183 z" transform="matrix(-0.80901699,-0.58778525,0.58778525,-0.80901699,0,0)" id="path4674"/>
        <path inkscape:connector-curvature="0" style="fill:#cccccc;stroke:#040000;stroke-width:0;stroke-miterlimit:4;stroke-opacity:1;stroke-dasharray:none;stroke-dashoffset:2" d="M 80,12.362183 200,772.36218 c -37.30632,8.82161 -73.36105,18.64449 -120,20 -13.963931,-37.78156 -8.940818,-112.17678 -80,-100 L 0,12.362183 z" transform="matrix(0.30901699,-0.95105652,0.95105652,0.30901699,0,0)" id="path4676"/>
        <path inkscape:connector-curvature="0" style="fill:#cccccc;stroke:#040000;stroke-width:0;stroke-miterlimit:4;stroke-opacity:1;stroke-dasharray:none;stroke-dashoffset:2" d="M -80,12.362183 -200,772.36218 c 37.30632,8.82161 73.36105,18.64449 120,20 13.96393,-37.78156 8.94082,-112.17678 80,-100 L 0,12.362183 z" id="path4678"/>
        <path inkscape:connector-curvature="0" style="fill:#cccccc;stroke:#040000;stroke-width:0;stroke-miterlimit:4;stroke-opacity:1;stroke-dasharray:none;stroke-dashoffset:2" d="M -80,12.362183 -200,772.36218 c 37.30632,8.82161 73.36105,18.64449 120,20 13.96393,-37.78156 8.94082,-112.17678 80,-100 L 0,12.362183 z" transform="matrix(0.30901699,0.95105652,-0.95105652,0.30901699,0,0)" id="path4680"/>
        <path inkscape:connector-curvature="0" style="fill:#cccccc;stroke:#040000;stroke-width:0;stroke-miterlimit:4;stroke-opacity:1;stroke-dasharray:none;stroke-dashoffset:2" d="M -80,12.362183 -200,772.36218 c 37.30632,8.82161 73.36105,18.64449 120,20 13.96393,-37.78156 8.94082,-112.17678 80,-100 L 0,12.362183 z" transform="matrix(-0.80901699,0.58778525,-0.58778525,-0.80901699,0,0)" id="path4682"/>
        <path inkscape:connector-curvature="0" style="fill:#cccccc;stroke:#040000;stroke-width:0;stroke-miterlimit:4;stroke-opacity:1;stroke-dasharray:none;stroke-dashoffset:2" d="M -80,12.362183 -200,772.36218 c 37.30632,8.82161 73.36105,18.64449 120,20 13.96393,-37.78156 8.94082,-112.17678 80,-100 L 0,12.362183 z" transform="matrix(-0.80901699,-0.58778525,0.58778525,-0.80901699,0,0)" id="path4684"/>
        <path inkscape:connector-curvature="0" style="fill:#cccccc;stroke:#040000;stroke-width:0;stroke-miterlimit:4;stroke-opacity:1;stroke-dasharray:none;stroke-dashoffset:2" d="M -80,12.362183 -200,772.36218 c 37.30632,8.82161 73.36105,18.64449 120,20 13.96393,-37.78156 8.94082,-112.17678 80,-100 L 0,12.362183 z" transform="matrix(0.30901699,-0.95105652,0.95105652,0.30901699,0,0)" id="path4686"/>
      </g>
      <path inkscape:connector-curvature="0" id="path4688" d="m 40,172.36218 -54.641016,14.64102 -40,-40 L -40,92.362183 14.641016,77.721166 l 40,40.000004 z" style="fill:#000000;fill-opacity:1;fill-rule:evenodd;stroke:#040000;stroke-width:0;stroke-miterlimit:4;stroke-opacity:1;stroke-dashoffset:2"/>
      <g id="g4690">
        <path inkscape:connector-curvature="0" id="path4692" d="m 40,172.36218 -54.641016,14.64102 -40,-40 L -40,92.362183 14.641016,77.721166 l 40,40.000004 z" style="fill:#000000;fill-opacity:1;fill-rule:evenodd;stroke:#040000;stroke-width:0;stroke-miterlimit:4;stroke-opacity:1;stroke-dashoffset:2"/>
        <path inkscape:connector-curvature="0" id="path4694" transform="matrix(0.30901699,0.95105652,-0.95105652,0.30901699,0,0)" d="m 40,172.36218 -54.641016,14.64102 -40,-40 L -40,92.362183 14.641016,77.721166 l 40,40.000004 z" style="fill:#000000;fill-opacity:1;fill-rule:evenodd;stroke:#040000;stroke-width:0;stroke-miterlimit:4;stroke-opacity:1;stroke-dashoffset:2"/>
        <path inkscape:connector-curvature="0" id="path4696" transform="matrix(-0.80901699,0.58778525,-0.58778525,-0.80901699,0,0)" d="m 40,172.36218 -54.641016,14.64102 -40,-40 L -40,92.362183 14.641016,77.721166 l 40,40.000004 z" style="fill:#000000;fill-opacity:1;fill-rule:evenodd;stroke:#040000;stroke-width:0;stroke-miterlimit:4;stroke-opacity:1;stroke-dashoffset:2"/>
        <path inkscape:connector-curvature="0" id="path4698" transform="matrix(-0.80901699,-0.58778525,0.58778525,-0.80901699,0,0)" d="m 40,172.36218 -54.641016,14.64102 -40,-40 L -40,92.362183 14.641016,77.721166 l 40,40.000004 z" style="fill:#000000;fill-opacity:1;fill-rule:evenodd;stroke:#040000;stroke-width:0;stroke-miterlimit:4;stroke-opacity:1;stroke-dashoffset:2"/>
        <path inkscape:connector-curvature="0" id="path4700" transform="matrix(0.30901699,-0.95105652,0.95105652,0.30901699,0,0)" d="m 40,172.36218 -54.641016,14.64102 -40,-40 L -40,92.362183 14.641016,77.721166 l 40,40.000004 z" style="fill:#000000;fill-opacity:1;fill-rule:evenodd;stroke:#040000;stroke-width:0;stroke-miterlimit:4;stroke-opacity:1;stroke-dashoffset:2"/>
      </g>
      <g style="font-size:48px;font-style:normal;font-variant:normal;font-weight:normal;font-stretch:normal;text-align:start;line-height:125%;letter-spacing:0px;word-spacing:0px;writing-mode:lr-tb;text-anchor:start;fill:#000000;fill-opacity:1;stroke:none;font-family:Sans;-inkscape-font-specification:Sans" id="g4702">
        <path inkscape:connector-curvature="0" d="m -19.913658,18.838667 4.546875,1.148437 c -0.953157,3.734383 -2.667999,6.582036 -5.144531,8.542969 -2.476588,1.960938 -5.503929,2.941406 -9.082032,2.941406 -3.703139,0 -6.714855,-0.753906 -9.035156,-2.261718 -2.32032,-1.50781 -4.085943,-3.691401 -5.296875,-6.550782 -1.21094,-2.859363 -1.816409,-5.929673 -1.816406,-9.210937 -3e-6,-3.5781041 0.683591,-6.6991947 2.050781,-9.3632813 1.367182,-2.6640331 3.312492,-4.68746855 5.835938,-6.0703125 2.523424,-1.3827783 5.300765,-2.0741838 8.332031,-2.0742188 3.437478,3.5e-5 6.3281,0.8750341 8.671875,2.625 2.34372,1.75003059 3.976531,4.2109656 4.898437,7.3828125 l -4.476562,1.0546875 c -0.796902,-2.4999736 -1.953151,-4.3202843 -3.46875,-5.4609375 -1.515648,-1.1405945 -3.421896,-1.71090643 -5.71875,-1.71093748 -2.640641,3.105e-5 -4.84767,0.63284292 -6.621094,1.89843748 -1.773448,1.2656529 -3.01954,2.96487 -3.738281,5.0976563 -0.718758,2.1328344 -1.078132,4.3320508 -1.078125,6.5976558 -7e-6,2.92189 0.425774,5.472669 1.277344,7.652344 0.851553,2.179695 2.17577,3.8086 3.972656,4.886719 1.796861,1.078129 3.742171,1.617191 5.835937,1.617187 2.546855,4e-6 4.703102,-0.734371 6.46875,-2.203125 1.765599,-1.468743 2.96091,-3.648428 3.585938,-6.539062 z" id="path4704"/>
        <path inkscape:connector-curvature="0" d="m -13.515221,30.885542 13.19531286,-34.3593751 4.89843754,0 14.0624996,34.3593751 -5.179687,0 -4.0078126,-10.40625 -14.3671875,0 -3.7734375,10.40625 z m 9.9140629,-14.109375 11.6484375,0 L 4.4613419,7.2605419 C 3.367575,4.3699434 2.5550759,1.9949458 2.0238419,0.13554192 1.5863268,2.3386955 0.96913994,4.5261933 0.17227936,6.6980419 z" id="path4706"/>
        <path inkscape:connector-curvature="0" d="m 22.391029,30.885542 0,-34.3593751 15.234375,0 c 3.062478,3.44e-5 5.390601,0.3086278 6.984375,0.9257813 1.593723,0.6172203 2.867159,1.70706294 3.820313,3.26953122 0.953094,1.56252858 1.429656,3.28908938 1.429687,5.17968748 -3.1e-5,2.4375226 -0.789093,4.4922081 -2.367187,6.1640621 -1.578152,1.671893 -4.01565,2.734392 -7.3125,3.1875 1.203102,0.57814 2.117164,1.148452 2.742187,1.710938 1.3281,1.218763 2.585911,2.742199 3.773438,4.570312 l 5.976562,9.351563 -5.71875,0 -4.546875,-7.148438 c -1.328147,-2.06249 -2.421896,-3.640614 -3.28125,-4.734375 -0.859394,-1.093737 -1.628925,-1.859361 -2.308593,-2.296875 -0.679705,-0.437485 -1.371111,-0.742172 -2.074219,-0.914062 -0.515641,-0.10936 -1.35939,-0.164047 -2.53125,-0.164063 l -5.273438,0 0,15.257813 z m 4.546875,-19.195313 9.773438,0 c 2.078105,2e-5 3.703103,-0.214824 4.875,-0.644531 1.171851,-0.429667 2.062475,-1.1171664 2.671875,-2.0624998 C 44.867566,8.0379085 45.172253,7.0105658 45.172279,5.9011669 45.172253,4.2761935 44.58241,2.9402574 43.402748,1.8933544 42.223037,0.84650945 40.359758,0.32307248 37.812904,0.32304192 l -10.875,0 z" id="path4708"/>
      </g>
    </g>
  </g>
</svg>